<svg fill="#FFFFFF" viewBox="0 0 350 350" xmlns="http://www.w3.org/2000/svg" xmlns:xlink="http://www.w3.org/1999/xlink">
  <g>
    <path d="M254.999987,326.641887 C230.006827,341.498515 200.998331,350 170.060255,350 C76.1385695,350 0,271.649831 0,175 C0,78.3501688 76.1385695,0 170.060255,0 C195.702224,0 220.018695,5.83997403 241.822157,16.2979166 C224.971294,11.4394466 206.950761,8.89765024 188.223196,8.89765024 C94.3015111,8.89765024 18.1629415,72.8284163 18.1629415,172.293438 C18.1629415,271.758459 94.3015111,338.91485 188.223196,338.91485 C211.927596,338.91485 234.499246,334.637118 255,326.641882 Z"></path>
    <path d="M160.000003,120.810377 C183.224285,90.1826343 220.981922,51.4947878 276.063184,26.5402844 C315.346825,40.5497111 350,112.679508 350,160.520573 C350,200.694647 337.205921,267.4658 285.995778,301.895735 C227.995158,279.761667 188.763455,245.49045 164.221859,217.174587 C191.890453,240.675956 231.86064,267.936331 283.462361,286.135404 C328.336302,259.625225 336.495755,197.342753 336.495755,161.454122 C336.495755,118.716352 319.289873,65.9599892 277.078308,41.7964015 C226.095901,62.4300674 186.751401,94.081109 160,120.810381 Z"></path>
    <path d="M148.044513,189.217701 C146.332931,190.584521 144.367009,191.569362 142.193415,192.071176 C132.394735,194.333379 122.08617,185.922602 119.168591,173.28518 C116.251013,160.647757 121.829247,148.569224 131.627927,146.30702 C133.072866,145.97343 134.528894,145.871926 135.970673,145.981837 C127.851915,149.375145 123.621808,159.09009 126.400867,171.12752 C129.294367,183.660645 138.750577,190.406739 148.044513,189.217701 Z" transform="translate(133.233358, 169.189098) rotate(3.000000) translate(-133.233358, -169.189098) "></path>
  </g>
</svg>
