<?xml version="1.0" standalone="no"?>
<!DOCTYPE svg PUBLIC "-//W3C//DTD SVG 20010904//EN"
 "http://www.w3.org/TR/2001/REC-SVG-20010904/DTD/svg10.dtd">
<svg version="1.0" xmlns="http://www.w3.org/2000/svg"
 width="580.000000pt" height="580.000000pt" viewBox="0 0 580.000000 580.000000"
 preserveAspectRatio="xMidYMid meet">
<metadata>
Created by potrace 1.11, written by Peter Selinger 2001-2013
</metadata>
<g transform="translate(0.000000,580.000000) scale(0.100000,-0.100000)"
fill="#000000" stroke="none">
<path d="M2619 5736 c-2 -2 -38 -7 -79 -10 -42 -4 -87 -8 -100 -11 -14 -2 -54
-9 -90 -15 -36 -5 -76 -12 -90 -15 -14 -4 -35 -8 -46 -11 -245 -51 -541 -165
-789 -303 -46 -26 -267 -171 -275 -181 -3 -3 -23 -19 -45 -35 -22 -17 -42 -32
-45 -35 -3 -3 -30 -25 -60 -50 -56 -45 -235 -223 -300 -296 -29 -33 -63 -75
-113 -139 -55 -72 -70 -93 -89 -124 -12 -20 -25 -38 -28 -41 -4 -3 -24 -34
-45 -70 -21 -36 -45 -76 -53 -90 -42 -69 -152 -301 -167 -350 -4 -14 -11 -29
-15 -35 -7 -9 -78 -220 -85 -255 -2 -8 -15 -62 -29 -120 -25 -104 -50 -254
-64 -380 -9 -87 -9 -446 0 -540 15 -144 50 -341 85 -465 14 -49 27 -102 30
-118 3 -15 9 -30 14 -33 5 -3 9 -12 9 -21 0 -28 107 -285 163 -394 76 -147
208 -359 229 -367 4 -2 8 -8 8 -14 0 -9 85 -118 155 -197 50 -58 227 -233 290
-288 55 -47 172 -137 225 -173 12 -8 40 -27 61 -43 21 -15 41 -27 44 -27 2 0
31 -17 62 -37 70 -45 282 -150 378 -188 143 -57 349 -121 445 -139 14 -3 48
-9 77 -15 29 -6 74 -13 100 -17 26 -3 57 -8 68 -11 82 -17 507 -25 620 -11 28
3 70 9 95 11 55 6 117 16 150 23 14 2 36 6 50 8 99 15 353 93 500 153 152 62
449 216 385 199 -11 -2 -45 -12 -75 -20 -59 -16 -65 -18 -180 -41 -41 -9 -86
-18 -100 -21 -24 -5 -70 -11 -140 -19 -19 -2 -57 -7 -85 -10 -128 -15 -461
-22 -550 -11 -22 2 -76 7 -120 11 -44 3 -91 8 -105 10 -14 2 -45 7 -70 10 -48
7 -114 20 -210 40 -14 3 -35 7 -47 9 -91 18 -397 121 -510 172 -28 13 -54 24
-58 24 -3 0 -17 8 -32 17 -14 10 -32 18 -39 19 -7 1 -26 11 -41 22 -15 11 -32
21 -38 21 -10 2 -220 127 -240 143 -5 4 -37 28 -70 53 -157 117 -174 133 -320
280 -111 111 -219 244 -291 355 -16 25 -32 47 -37 48 -4 2 -7 8 -7 14 0 5 -9
22 -20 38 -25 35 -119 224 -156 310 -22 53 -89 242 -92 260 0 3 -3 12 -6 20
-18 55 -50 212 -71 345 -20 125 -26 481 -12 625 18 177 56 366 103 515 224
700 729 1235 1441 1531 99 41 343 125 343 118 0 -3 8 -1 18 5 17 9 231 59 286
67 17 2 42 6 56 9 44 9 109 17 255 32 95 9 491 10 590 1 144 -13 221 -24 355
-49 119 -22 166 -33 194 -45 12 -4 17 -4 13 2 -5 9 -190 103 -272 139 -138 60
-359 131 -500 160 -58 13 -130 26 -165 30 -19 3 -53 8 -75 11 -22 4 -53 8 -70
11 -39 5 -481 13 -486 9z"/>
<path d="M4420 5226 c-80 -40 -169 -86 -198 -102 -30 -16 -66 -35 -80 -43 -91
-47 -462 -295 -470 -313 -2 -5 -10 -8 -17 -8 -7 0 -15 -3 -17 -8 -1 -4 -23
-23 -48 -42 -304 -233 -622 -547 -895 -884 -60 -75 -44 -65 74 43 14 13 46 40
71 60 25 20 47 38 50 41 5 5 77 64 161 132 19 15 68 52 109 82 41 31 81 60 88
67 22 19 333 223 413 271 242 147 526 290 764 388 44 18 85 36 90 40 22 16 72
-2 149 -53 241 -163 402 -347 549 -627 50 -96 129 -294 141 -351 3 -13 11 -46
20 -74 16 -53 19 -69 42 -185 15 -82 24 -138 29 -185 29 -270 24 -699 -11
-945 -3 -25 -8 -58 -10 -75 -2 -16 -6 -41 -9 -55 -3 -14 -8 -41 -11 -60 -13
-83 -64 -269 -102 -370 -25 -69 -36 -95 -58 -138 -13 -26 -24 -53 -24 -59 0
-7 -4 -13 -8 -13 -4 0 -13 -12 -20 -27 -63 -146 -272 -379 -440 -491 -83 -55
-95 -60 -120 -51 -15 6 -76 29 -137 51 -60 22 -123 46 -140 53 -16 7 -97 42
-180 76 -201 85 -505 236 -698 348 -142 82 -434 265 -447 280 -3 3 -12 11 -21
16 -46 28 -144 100 -147 107 -2 4 -10 8 -17 8 -7 0 -15 3 -17 8 -1 4 -30 27
-63 52 -33 25 -66 51 -73 57 -7 7 -16 13 -19 13 -6 0 3 -12 47 -64 45 -55 364
-371 429 -427 35 -30 69 -59 75 -64 9 -9 85 -70 196 -158 23 -18 146 -107 222
-160 37 -26 71 -47 76 -47 6 0 12 -4 14 -8 3 -8 151 -102 223 -142 176 -99
342 -183 475 -243 141 -64 313 -128 319 -120 3 5 30 24 59 42 28 18 52 37 52
42 0 5 5 9 10 9 24 0 249 221 336 330 168 210 306 469 414 775 17 50 31 91 31
92 0 2 1 8 4 15 10 33 35 127 39 149 3 13 5 24 6 24 1 0 3 7 5 15 10 45 35
169 40 195 2 17 7 41 10 55 3 14 7 45 10 70 3 25 8 63 11 85 11 76 14 121 18
330 2 116 1 233 -4 260 -4 28 -11 70 -14 95 -7 53 -13 85 -20 108 -3 9 -8 34
-10 55 -3 21 -7 41 -10 45 -3 5 -7 19 -10 33 -18 90 -82 289 -138 429 -151
377 -407 773 -631 974 -89 80 -188 155 -204 156 -7 0 -13 5 -13 10 0 6 -6 10
-14 10 -7 0 -19 7 -26 15 -7 9 -15 13 -17 11 -3 -3 -19 3 -36 13 -65 36 -73
35 -227 -43z"/>
<path d="M2044 3276 c-108 -59 -163 -172 -159 -322 2 -78 27 -188 46 -200 5
-3 7 -9 5 -13 -3 -4 15 -33 40 -65 96 -122 226 -166 334 -113 41 20 59 45 35
48 -23 3 -98 64 -126 102 -58 80 -79 146 -83 257 -4 121 36 207 128 274 19 13
18 14 -15 32 -52 27 -156 27 -205 0z"/>
</g>
</svg>
