<?xml version="1.0" standalone="no"?>
<!DOCTYPE svg PUBLIC "-//W3C//DTD SVG 20010904//EN"
 "http://www.w3.org/TR/2001/REC-SVG-20010904/DTD/svg10.dtd">
<svg version="1.0" xmlns="http://www.w3.org/2000/svg"
 width="360.000000pt" height="360.000000pt" viewBox="0 0 360.000000 360.000000"
 preserveAspectRatio="xMidYMid meet">
<metadata>
Created by potrace 1.11, written by Peter Selinger 2001-2013
</metadata>
<g transform="translate(0.000000,360.000000) scale(0.100000,-0.100000)"
fill="#000000" stroke="none">
<path d="M1516 3515 c-713 -116 -1270 -653 -1428 -1376 -20 -92 -22 -132 -22
-344 0 -212 2 -252 22 -344 152 -697 664 -1212 1355 -1363 89 -20 131 -22 337
-22 259 0 339 11 532 75 353 117 760 412 937 678 199 300 301 681 288 1080 -4
148 -8 181 -40 301 -110 426 -360 815 -616 960 -34 19 -110 64 -169 99 -207
124 -388 198 -589 242 -129 28 -472 36 -607 14z m578 -35 c141 -28 265 -69
403 -135 114 -54 253 -138 253 -152 -1 -5 -38 -25 -83 -46 -434 -202 -898
-614 -1190 -1058 l-69 -107 -62 5 c-52 4 -66 2 -96 -19 -109 -74 -112 -266 -7
-377 59 -62 124 -76 192 -41 l40 20 20 -27 c112 -154 361 -410 533 -549 213
-171 537 -366 755 -454 31 -13 57 -27 57 -31 0 -23 -203 -155 -337 -220 -234
-113 -452 -162 -723 -162 -271 0 -488 48 -724 162 -270 130 -530 362 -689 614
-543 857 -216 2007 693 2441 178 84 371 140 555 160 101 10 373 -3 479 -24z
m-729 -1665 c30 -29 32 -68 5 -95 -26 -26 -36 -25 -65 5 -30 29 -32 68 -5 95
26 26 36 25 65 -5z"/>
</g>
</svg>
