<?xml version="1.0" standalone="no"?>
<!DOCTYPE svg PUBLIC "-//W3C//DTD SVG 20010904//EN"
 "http://www.w3.org/TR/2001/REC-SVG-20010904/DTD/svg10.dtd">
<svg version="1.0" xmlns="http://www.w3.org/2000/svg"
 width="700.000000pt" height="700.000000pt" viewBox="0 0 700.000000 700.000000"
 preserveAspectRatio="xMidYMid meet">
<metadata>
Created by potrace 1.11, written by Peter Selinger 2001-2013
</metadata>
<g transform="translate(0.000000,700.000000) scale(0.100000,-0.100000)"
fill="#000000" stroke="none">
<path d="M3188 6995 c-2 -2 -42 -6 -90 -10 -47 -3 -95 -7 -105 -9 -10 -2 -40
-7 -68 -10 -54 -7 -240 -43 -312 -60 -114 -28 -391 -117 -478 -155 -110 -48
-365 -178 -450 -229 -436 -263 -817 -629 -1097 -1057 -128 -196 -193 -315
-298 -549 -90 -200 -180 -499 -229 -756 -17 -94 -24 -140 -37 -245 -19 -158
-26 -567 -11 -710 3 -38 9 -97 13 -130 5 -52 27 -197 39 -260 13 -67 45 -207
49 -214 3 -4 8 -23 11 -42 11 -63 113 -353 169 -481 57 -132 164 -343 197
-390 11 -14 19 -28 19 -31 0 -10 142 -221 200 -297 331 -436 733 -771 1209
-1010 315 -158 703 -279 1016 -316 28 -4 53 -8 56 -10 29 -17 507 -25 674 -11
414 34 793 137 1165 315 113 54 320 169 320 179 0 2 -4 2 -8 -1 -22 -13 -306
-84 -406 -100 -281 -48 -433 -61 -711 -60 -365 0 -633 32 -972 118 -154 39
-407 126 -533 183 -393 177 -705 389 -981 663 -142 142 -207 216 -302 345 -36
50 -74 101 -85 115 -69 93 -222 380 -282 530 -23 58 -46 114 -50 125 -56 136
-124 411 -155 625 -26 176 -30 232 -30 475 0 224 6 361 20 435 3 14 6 44 9 65
18 180 96 475 183 695 358 904 1157 1576 2184 1836 117 29 173 41 314 68 11 2
61 9 110 15 50 7 104 14 120 16 178 25 727 26 880 1 17 -3 55 -8 85 -10 30 -3
64 -7 75 -10 23 -4 84 -14 140 -22 22 -3 56 -9 75 -14 19 -5 49 -11 65 -14 17
-3 63 -14 103 -25 85 -22 85 -21 0 26 -324 176 -689 304 -1033 363 -33 5 -69
12 -80 14 -11 2 -51 7 -90 11 -38 4 -83 9 -100 12 -36 5 -502 12 -507 8z"/>
<path d="M5333 6365 c-211 -106 -286 -146 -291 -157 -2 -5 -9 -8 -15 -8 -14 0
-211 -122 -352 -219 -114 -78 -401 -292 -445 -333 -14 -13 -52 -45 -85 -73
-250 -207 -593 -562 -810 -835 -33 -41 -62 -77 -65 -80 -3 -3 -21 -25 -40 -50
-29 -38 -19 -41 15 -5 21 21 192 172 250 220 33 28 62 53 65 56 16 20 326 257
454 347 372 264 826 528 1181 687 132 59 290 125 300 125 17 0 183 -111 265
-177 430 -346 717 -917 806 -1608 3 -27 8 -61 10 -75 24 -185 24 -791 -1 -995
-2 -16 -6 -55 -10 -85 -49 -456 -174 -854 -358 -1145 -139 -218 -327 -410
-528 -537 l-55 -35 -190 72 c-329 124 -824 351 -1012 463 -29 18 -55 32 -57
32 -12 0 -474 275 -485 289 -3 4 -30 22 -60 41 -30 19 -61 40 -68 47 -7 7 -17
13 -21 13 -6 0 -262 182 -306 217 -6 4 -28 21 -50 37 -22 16 -44 34 -50 40 -5
6 -35 29 -65 50 l-55 39 41 -44 c22 -24 65 -73 96 -109 81 -94 357 -372 473
-476 273 -244 636 -512 914 -675 47 -27 93 -54 101 -60 138 -88 587 -305 818
-394 l72 -28 48 33 c333 237 626 592 835 1014 91 185 216 521 243 652 1 6 9
36 17 65 16 57 53 223 61 274 2 17 9 55 15 85 5 30 12 75 15 100 4 25 8 54 10
65 2 11 7 58 11 105 4 47 9 94 12 105 8 36 11 503 3 547 -4 24 -11 75 -15 113
-3 39 -10 86 -15 105 -5 19 -12 53 -15 75 -10 68 -55 244 -97 380 -136 440
-338 846 -592 1189 -51 69 -190 233 -208 246 -4 3 -38 35 -75 71 -116 110
-212 181 -328 241 -127 66 -101 69 -312 -37z"/>
<path d="M2495 4073 c-89 -36 -158 -113 -197 -222 -21 -59 -30 -208 -16 -286
12 -67 59 -185 86 -213 6 -7 12 -17 12 -21 0 -11 71 -83 110 -112 108 -79 256
-82 355 -6 18 14 17 16 -26 36 -54 26 -127 92 -163 149 -94 150 -106 378 -27
515 27 46 47 67 110 114 14 10 9 15 -34 34 -63 28 -155 33 -210 12z"/>
</g>
</svg>
