<?xml version="1.0" encoding="UTF-8" standalone="no"?>
<svg viewBox="0 0 340 339" version="1.1" xmlns="http://www.w3.org/2000/svg" xmlns:xlink="http://www.w3.org/1999/xlink">
    <defs>
        <ellipse id="path-1" cx="124" cy="175" rx="17" ry="23"></ellipse>
        <filter x="-50%" y="-50%" width="200%" height="200%" filterUnits="objectBoundingBox" id="filter-2">
            <feOffset dx="1" dy="0" in="SourceAlpha" result="shadowOffsetOuter1"></feOffset>
            <feColorMatrix values="0 0 0 0 0.123246173   0 0 0 0 0.123246173   0 0 0 0 0.123246173  0 0 0 0.855808424 0" type="matrix" in="shadowOffsetOuter1"></feColorMatrix>
        </filter>
    </defs>
    <g id="Page-1" stroke="none" stroke-width="1" fill="none" fill-rule="evenodd">
        <g id="Artboard-2" transform="translate(-80.000000, -81.000000)">
            <g id="Group" transform="translate(80.000000, 81.000000)">
                <ellipse id="Oval-4" fill="#FFFFFF" cx="168" cy="169.5" rx="168" ry="169.5"></ellipse>
                <path d="M276.419271,300 C327.290574,266.489777 340,201.502253 340,162.401332 C340,115.838224 305.576112,45.635199 266.552397,32 C164.123,77.466748 122,169.774379 122,169.774379 C122,169.774379 169.177051,258.51758 276.419271,300 Z" id="Oval-4" fill="#3D3D3D"></path>
                <path d="M292,71.230018 C284.042119,53.5937898 269.509132,49 269.509132,49 C269.509133,49 224.08086,58.8968302 181,114 C181,114 238.883929,75.0743285 292,71.230018 Z" id="Oval-4" fill="#575757"></path>
                <g id="Oval-5" transform="translate(124.000000, 175.000000) rotate(-13.000000) translate(-124.000000, -175.000000) ">
                    <use fill="black" fill-opacity="1" filter="url(#filter-2)" xlink:href="#path-1"></use>
                    <use fill="#00D4ED" fill-rule="evenodd" xlink:href="#path-1"></use>
                </g>
                <ellipse id="Oval-5" fill="#FFFFFF" transform="translate(123.500000, 174.000000) rotate(-13.000000) translate(-123.500000, -174.000000) " cx="123.5" cy="174" rx="5.5" ry="7"></ellipse>
            </g>
        </g>
    </g>
</svg>
