<?xml version="1.0" encoding="UTF-8" standalone="no"?>
<svg viewBox="0 0 145 142" version="1.1" xmlns="http://www.w3.org/2000/svg" xmlns:xlink="http://www.w3.org/1999/xlink">
    <g id="Page-1" stroke="none" stroke-width="1" fill="none" fill-rule="evenodd">
        <g id="Group-Copy-2" fill="#FFFFFF">
            <path d="M107,131.64399 C96.3315386,138.214218 83.7939907,142 70.3799479,142 C31.510176,142 0,110.212217 0,71 C0,31.7877828 31.510176,0 70.3799479,0 C83.0523267,0 94.9424543,3.37872268 105.213445,9.29190955 C98.3441728,7.46276797 91.0106852,6.506588 83.3946526,6.506588 C44.5248806,6.506588 13.0147047,31.4127057 13.0147047,70.1622419 C13.0147047,108.911778 44.5248806,135.074533 83.3946526,135.074533 C91.6749004,135.074533 99.6211712,133.887272 107,131.64399 Z" id="Combined-Shape"></path>
            <path d="M65.9019196,49.7728223 C75.5006732,37.2492329 91.2503463,21.2669694 114.348094,11 C130.63387,16.6982921 145,46.0368697 145,65.496079 C145,81.8367624 139.695972,108.995728 118.465838,123 C93.0572909,113.486594 76.3370846,98.4607724 66.3100421,86.605627 C77.8038523,95.7023367 94.6359238,106.49775 116.509312,113.927099 C135.112654,103.342874 136.68281,80.2188029 136.68281,65.8902186 C136.68281,48.8271059 131.362285,29.0334391 113.862682,19.386094 C93.090104,27.4825714 76.9778732,39.5281432 65.9019196,49.7728223 Z" id="Combined-Shape"></path>
            <path d="M59.2937104,78.4670448 C58.5430178,79.1475461 57.655762,79.6331053 56.6594095,79.8631314 C52.7078928,80.7754109 48.5367522,77.3229429 47.3429063,72.1518282 C46.1490604,66.9807135 48.3845943,62.0491481 52.3361111,61.1368686 C53.9791757,60.7575372 55.6602121,61.1328475 57.1493917,62.0725695 C54.1314497,63.5577144 52.5827782,67.2391635 53.6204993,71.7340273 C54.443718,75.2997792 56.6855341,77.6503518 59.2937104,78.4670448 Z" id="Combined-Shape"></path>
        </g>
    </g>
</svg>
