<?xml version="1.0" encoding="UTF-8" standalone="no"?>
<svg viewBox="0 0 359 326" version="1.1" xmlns="http://www.w3.org/2000/svg" xmlns:xlink="http://www.w3.org/1999/xlink">
    <g id="Page-1" stroke="none" stroke-width="1" fill="none" fill-rule="evenodd">
        <g id="Artboard-1-Copy-6" transform="translate(-221.000000, -137.000000)" fill="#FFFFFF">
            <g id="Group" transform="translate(221.000000, 137.000000)">
                <g id="Group-Copy-3" transform="translate(79.000000, 0.000000)">
                    <path d="M145.714278,187.541329 C131.432473,196.071256 114.856189,200.952381 97.1772885,200.952381 C43.507754,200.952381 0,155.967658 0,100.47619 C0,44.9847228 43.507754,0 97.1772885,0 C111.829842,0 125.724969,3.35301911 138.18409,9.3574433 C128.555025,6.56795439 118.257578,5.10858286 107.556112,5.10858286 C53.8865778,5.10858286 10.3788237,41.8144104 10.3788237,98.9222188 C10.3788237,156.030027 53.8865778,194.587846 107.556112,194.587846 C121.101484,194.587846 133.999569,192.131788 145.714286,187.541326 Z" id="Combined-Shape"></path>
                    <path d="M91.428573,69.3632368 C104.699591,51.7783288 126.275384,29.5657149 157.750391,15.2380952 C180.198186,23.2816028 200,64.6949011 200,92.1628326 C200,115.228763 192.689097,153.565398 163.426159,173.333333 C130.282947,160.625066 107.864831,140.948258 93.8410623,124.690715 C109.651688,138.184018 132.491794,153.835553 161.978492,164.284545 C187.620744,149.063734 192.283289,113.304274 192.283289,92.6988294 C192.283289,68.1609532 182.451356,37.8709053 158.330462,23.9973897 C129.197657,35.844202 106.715086,54.0166367 91.4285714,69.3632389 Z" id="Combined-Shape"></path>
                    <path d="M84.6171225,108.637722 C83.6380698,109.424101 82.5126813,109.990186 81.2677547,110.2776 C75.668509,111.570288 69.7714649,106.736253 68.096338,99.4804813 C66.4212111,92.2247094 69.6023378,85.2948137 75.2015835,84.002126 C76.0242448,83.8121997 76.8533347,83.7545281 77.6745183,83.8173607 C73.0422298,85.7638807 70.634541,91.3350106 72.229067,98.2416614 C73.8910456,105.440481 79.3036489,109.318687 84.6171225,108.637722 Z" id="Combined-Shape" transform="translate(76.133347, 97.139863) rotate(3.000000) translate(-76.133347, -97.139863) "></path>
                </g>
                <path d="M16.8,308.9 C16.8,312.033349 16.4166705,314.59999 15.65,316.6 C14.8833295,318.60001 13.83334,320.216661 12.5,321.45 C11.16666,322.68334 9.633342,323.583331 7.9,324.15 C6.166658,324.71667 4.366676,325.099999 2.5,325.3 L0.7,322.2 C4.966688,321.866665 8.1166565,320.716677 10.15,318.75 C12.1833435,316.783324 13.2,313.566689 13.2,309.1 L13.2,252.9 L16.8,252.9 L16.8,308.9 Z M66.7116279,304 L66.7116279,295.4 C65.8449569,297.266676 64.8283004,298.833327 63.6616279,300.1 C62.4949554,301.366673 61.2616344,302.366663 59.9616279,303.1 C58.6616214,303.833337 57.2949684,304.366665 55.8616279,304.7 C54.4282874,305.033335 53.0449679,305.2 51.7116279,305.2 C46.3116009,305.2 42.2116419,303.483351 39.4116279,300.05 C36.6116139,296.61665 35.2116279,291.300036 35.2116279,284.1 L35.2116279,252.9 L38.8116279,252.9 L38.8116279,284.9 C38.8116279,291.100031 40.0116159,295.483321 42.4116279,298.05 C44.8116399,300.61668 47.9782749,301.9 51.9116279,301.9 C53.9783049,301.9 55.9282854,301.56667 57.7616279,300.9 C59.5949704,300.23333 61.1616214,299.133341 62.4616279,297.6 C63.7616344,296.066659 64.7949574,294.083346 65.5616279,291.65 C66.3282984,289.216655 66.7116279,286.200018 66.7116279,282.6 L66.7116279,252.9 L70.3116279,252.9 L70.3116279,304 L66.7116279,304 Z M135.823256,251.7 C140.756614,251.7 144.656575,253.233318 147.523256,256.3 C150.389937,259.366682 151.823256,263.56664 151.823256,268.9 L151.823256,304 L148.223256,304 L148.223256,271.9 C148.223256,270.033324 148.089924,268.116677 147.823256,266.15 C147.556588,264.183324 146.97326,262.383342 146.073256,260.75 C145.173251,259.116659 143.889931,257.766672 142.223256,256.7 C140.556581,255.633328 138.32327,255.1 135.523256,255.1 C133.389912,255.1 131.473264,255.549996 129.773256,256.45 C128.073247,257.350005 126.639928,258.566659 125.473256,260.1 C124.306583,261.633341 123.423259,263.416657 122.823256,265.45 C122.223253,267.483344 121.923256,269.633322 121.923256,271.9 L121.923256,304 L118.323256,304 L118.323256,271.9 C118.323256,270.033324 118.173257,268.116677 117.873256,266.15 C117.573254,264.183324 116.989927,262.383342 116.123256,260.75 C115.256585,259.116659 113.989931,257.766672 112.323256,256.7 C110.656581,255.633328 108.489936,255.1 105.823256,255.1 C103.489911,255.1 101.456598,255.533329 99.7232558,256.4 C97.9899138,257.266671 96.5565948,258.483326 95.4232558,260.05 C94.2899168,261.616675 93.4399253,263.466656 92.8732558,265.6 C92.3065863,267.733344 92.0232558,270.066654 92.0232558,272.6 L92.0232558,304 L88.4232558,304 L88.4232558,252.9 L92.0232558,252.9 L92.0232558,261.3 C93.5565968,257.96665 95.5899098,255.533341 98.1232558,254 C100.656602,252.466659 103.389908,251.7 106.323256,251.7 C109.723273,251.7 112.706576,252.683324 115.273256,254.65 C117.839935,256.616677 119.556585,259.799978 120.423256,264.2 C121.756596,260.066646 123.823242,256.950011 126.623256,254.85 C129.42327,252.74999 132.489906,251.7 135.823256,251.7 L135.823256,251.7 Z M187.934884,305.2 C184.734868,305.2 181.851563,304.383342 179.284884,302.75 C176.718204,301.116659 174.634892,298.733349 173.034884,295.6 L173.034884,322.5 L169.434884,324.3 L169.434884,252.9 L173.034884,252.9 L173.034884,260.3 C176.568235,254.566638 181.801516,251.7 188.734884,251.7 C191.734899,251.7 194.434872,252.333327 196.834884,253.6 C199.234896,254.866673 201.268209,256.666655 202.934884,259 C204.601559,261.333345 205.884879,264.149984 206.784884,267.45 C207.684888,270.750017 208.134884,274.39998 208.134884,278.4 C208.134884,287.133377 206.284902,293.783311 202.584884,298.35 C198.884865,302.91669 194.001581,305.2 187.934884,305.2 L187.934884,305.2 Z M187.934884,301.6 C193.13491,301.6 197.151536,299.60002 199.984884,295.6 C202.818231,291.59998 204.234884,285.866704 204.234884,278.4 C204.234884,274.933316 203.868221,271.766681 203.134884,268.9 C202.401547,266.033319 201.334891,263.60001 199.934884,261.6 C198.534877,259.59999 196.818227,258.050005 194.784884,256.95 C192.75154,255.849994 190.46823,255.3 187.934884,255.3 C184.801535,255.3 181.91823,256.183324 179.284884,257.95 C176.651537,259.716675 174.568225,262.099985 173.034884,265.1 L173.034884,290.6 C174.701559,294.000017 176.818204,296.683323 179.384884,298.65 C181.951563,300.616676 184.801535,301.6 187.934884,301.6 L187.934884,301.6 Z M245.746512,260.3 C244.346505,258.96666 242.663188,257.766672 240.696512,256.7 C238.729835,255.633328 236.379859,255.1 233.646512,255.1 C230.046494,255.1 227.279855,255.933325 225.346512,257.6 C223.413169,259.266675 222.446512,261.499986 222.446512,264.3 C222.446512,265.966675 222.779842,267.366661 223.446512,268.5 C224.113182,269.633339 225.029839,270.633329 226.196512,271.5 C227.363184,272.366671 228.696504,273.13333 230.196512,273.8 C231.696519,274.46667 233.279837,275.13333 234.946512,275.8 C237.146523,276.666671 239.179836,277.549996 241.046512,278.45 C242.913188,279.350005 244.529838,280.399994 245.896512,281.6 C247.263185,282.800006 248.346508,284.233325 249.146512,285.9 C249.946516,287.566675 250.346512,289.599988 250.346512,292 C250.346512,295.933353 249.046525,299.116655 246.446512,301.55 C243.846499,303.983346 240.046537,305.2 235.046512,305.2 C231.513161,305.2 228.413192,304.450008 225.746512,302.95 C223.079832,301.449993 220.813188,299.633344 218.946512,297.5 L221.746512,295.1 C223.279853,296.833342 225.163167,298.383327 227.396512,299.75 C229.629856,301.116674 232.146498,301.8 234.946512,301.8 C238.54653,301.8 241.396501,301.000008 243.496512,299.4 C245.596522,297.799992 246.646512,295.33335 246.646512,292 C246.646512,290.199991 246.246516,288.63334 245.446512,287.3 C244.646508,285.96666 243.596518,284.766672 242.296512,283.7 C240.996505,282.633328 239.513187,281.700004 237.846512,280.9 C236.179837,280.099996 234.446521,279.36667 232.646512,278.7 C228.446491,277.166659 225.079858,275.333344 222.546512,273.2 C220.013166,271.066656 218.746512,268.100019 218.746512,264.3 C218.746512,260.699982 220.063165,257.700012 222.696512,255.3 C225.329858,252.899988 229.013155,251.7 233.746512,251.7 C236.613193,251.7 239.329832,252.266661 241.896512,253.4 C244.463191,254.533339 246.646503,256.066657 248.446512,258 L245.746512,260.3 Z M294.95814,304 L294.95814,295.4 C294.091469,297.266676 293.074812,298.833327 291.90814,300.1 C290.741467,301.366673 289.508146,302.366663 288.20814,303.1 C286.908133,303.833337 285.54148,304.366665 284.10814,304.7 C282.674799,305.033335 281.29148,305.2 279.95814,305.2 C274.558113,305.2 270.458154,303.483351 267.65814,300.05 C264.858126,296.61665 263.45814,291.300036 263.45814,284.1 L263.45814,252.9 L267.05814,252.9 L267.05814,284.9 C267.05814,291.100031 268.258128,295.483321 270.65814,298.05 C273.058152,300.61668 276.224787,301.9 280.15814,301.9 C282.224817,301.9 284.174797,301.56667 286.00814,300.9 C287.841482,300.23333 289.408133,299.133341 290.70814,297.6 C292.008146,296.066659 293.041469,294.083346 293.80814,291.65 C294.57481,289.216655 294.95814,286.200018 294.95814,282.6 L294.95814,252.9 L298.55814,252.9 L298.55814,304 L294.95814,304 Z M316.969767,304 L316.969767,252.9 L320.569767,252.9 L320.569767,304 L316.969767,304 Z M351.081395,305.2 C347.548044,305.2 345.098069,304.100011 343.731395,301.9 C342.364722,299.699989 341.681395,296.93335 341.681395,293.6 L341.681395,256.2 L332.981395,256.2 L332.981395,252.9 L341.681395,252.9 L341.681395,233.6 L345.281395,231.8 L345.281395,252.9 L358.281395,252.9 L358.281395,256.2 L345.281395,256.2 L345.281395,293.1 C345.281395,295.76668 345.681391,297.866659 346.481395,299.4 C347.281399,300.933341 348.948049,301.7 351.481395,301.7 C353.014736,301.7 354.431389,301.433336 355.731395,300.9 C357.031402,300.366664 358.114724,299.833336 358.981395,299.3 L358.581395,303.1 C357.514723,303.76667 356.298069,304.283331 354.931395,304.65 C353.564722,305.016668 352.281401,305.2 351.081395,305.2 L351.081395,305.2 Z" id="jumpsuit-copy-2"></path>
            </g>
        </g>
    </g>
</svg>
