<?xml version="1.0" encoding="UTF-8" standalone="no"?>
<svg viewBox="0 0 354 229" version="1.1" xmlns="http://www.w3.org/2000/svg" xmlns:xlink="http://www.w3.org/1999/xlink">
    <defs>
        <ellipse id="path-1" cx="7.45578231" cy="9.5" rx="6.53061224" ry="8.75862069"></ellipse>
        <filter x="-50%" y="-50%" width="200%" height="200%" filterUnits="objectBoundingBox" id="filter-2">
            <feOffset dx="1" dy="0" in="SourceAlpha" result="shadowOffsetOuter1"></feOffset>
            <feColorMatrix values="0 0 0 0 0.123246173   0 0 0 0 0.123246173   0 0 0 0 0.123246173  0 0 0 0.855808424 0" type="matrix" in="shadowOffsetOuter1"></feColorMatrix>
        </filter>
    </defs>
    <g id="Page-1" stroke="none" stroke-width="1" fill="none" fill-rule="evenodd">
        <g id="Artboard-1-Copy-3" transform="translate(-223.000000, -186.000000)">
            <g id="Group" transform="translate(223.000000, 186.000000)">
                <path d="M0,221.46531 C2.58983248,220.889408 4.75598703,220.257524 6.49852863,219.56964 C8.24107024,218.881756 9.63987853,218.057908 10.6949955,217.09807 C11.7501124,216.138232 12.5094655,215.010439 12.9730775,213.714658 C13.4366894,212.418877 13.668492,210.875161 13.668492,209.083464 L13.668492,157.732394 L23.8838912,157.732394 L23.8838912,205.628065 C23.8838912,207.099816 23.8199457,208.563547 23.6920527,210.019301 C23.5641598,211.475055 23.3243641,212.890795 22.9726584,214.266562 C22.6209528,215.64233 22.1413614,216.94609 21.5338698,218.177882 C20.9263782,219.409674 20.1270592,220.537467 19.1358887,221.561294 C17.9848521,222.777088 16.8018599,223.8009 15.5868768,224.63276 C14.3718937,225.464619 13.1569287,226.160491 11.9419456,226.720396 C10.7269625,227.280302 9.52798394,227.744217 8.34497404,228.112154 C7.16196414,228.480092 6.01094475,228.776038 4.89188133,229 L0,221.46531 Z M64.6852599,207.979656 L64.6852599,203.18049 C63.0546246,205.260139 61.1762249,206.77986 59.0500044,207.739697 C56.9237839,208.699535 54.4698745,209.179447 51.6882026,209.179447 C49.0663969,209.179447 46.6524534,208.803516 44.4462998,208.051643 C42.2401463,207.29977 40.3297738,206.067997 38.7151251,204.356286 C37.1004765,202.644575 35.8455456,200.428982 34.9502949,197.709442 C34.0550442,194.989901 33.6074255,191.662513 33.6074255,187.727178 L33.6074255,157.732394 L43.8228248,157.732394 L43.8228248,187.727178 C43.8228248,189.838821 44.0786069,191.63849 44.5901787,193.126239 C45.1017506,194.613988 45.8051513,195.837763 46.700402,196.7976 C47.5956528,197.757438 48.6507539,198.45331 49.865737,198.885237 C51.0807201,199.317164 52.4075897,199.533125 53.8463855,199.533125 C55.3811011,199.533125 56.8038889,199.333161 58.1147918,198.933229 C59.4256947,198.533297 60.5687209,197.877417 61.5439047,196.965571 C62.5190885,196.053725 63.2864348,194.861944 63.8459665,193.390193 C64.4054982,191.918442 64.6852599,190.094777 64.6852599,187.919144 L64.6852599,157.732394 L74.9006591,157.732394 L74.9006591,207.979656 L64.6852599,207.979656 Z M143.950244,207.979656 L143.950244,177.888889 C143.950244,174.145521 143.182898,171.266051 141.648183,169.250391 C140.113467,167.234732 137.811428,166.226917 134.741997,166.226917 C133.367148,166.226917 132.072251,166.48287 130.857268,166.994784 C129.642285,167.506697 128.579191,168.274556 127.667953,169.298383 C126.756716,170.32221 126.037329,171.593976 125.50977,173.113719 C124.982212,174.633463 124.718437,176.401138 124.718437,178.416797 L124.718437,207.979656 L114.503037,207.979656 L114.503037,177.888889 C114.503037,174.145521 113.727698,171.266051 112.176996,169.250391 C110.626293,167.234732 108.316262,166.226917 105.24683,166.226917 C103.871981,166.226917 102.585077,166.48287 101.386081,166.994784 C100.187084,167.506697 99.1319833,168.274556 98.220746,169.298383 C97.3095086,170.32221 96.5901215,171.593976 96.062563,173.113719 C95.5350045,174.633463 95.2712293,176.401138 95.2712293,178.416797 L95.2712293,207.979656 L85.05583,207.979656 L85.05583,157.732394 L95.2712293,157.732394 L95.2712293,162.387585 C96.7100251,160.307936 98.5324725,158.82021 100.738626,157.924361 C102.94478,157.028512 105.342737,156.580595 107.932569,156.580595 C110.682268,156.580595 113.232096,157.132493 115.582129,158.236307 C117.932162,159.34012 119.826548,161.171783 121.265344,163.731351 C122.864006,161.267767 124.910263,159.4601 127.404175,158.308294 C129.898088,157.156489 132.807609,156.580595 136.132826,156.580595 C138.690686,156.580595 141.064663,156.948527 143.25483,157.684403 C145.444997,158.420278 147.347376,159.55607 148.962025,161.09181 C150.576674,162.627551 151.847591,164.595189 152.774815,166.994784 C153.702039,169.394378 154.165644,172.241855 154.165644,175.537298 L154.165644,207.979656 L143.950244,207.979656 Z M186.142442,209.179447 C184.671673,209.179447 183.33681,209.035474 182.137814,208.747522 C180.938817,208.459571 179.84375,208.059644 178.85258,207.547731 C177.861409,207.035817 176.974165,206.451925 176.190821,205.796035 C175.407476,205.140146 174.712069,204.428277 174.104577,203.660407 L174.104577,223.001043 L163.889178,227.752217 L163.889178,157.732394 L174.104577,157.732394 L174.104577,161.763693 C175.41548,160.291942 177.030105,159.060168 178.948499,158.068336 C180.866893,157.076503 183.264851,156.580595 186.142442,156.580595 C189.307793,156.580595 192.169355,157.180484 194.727214,158.380282 C197.285074,159.580079 199.459221,161.307761 201.249723,163.56338 C203.040224,165.818999 204.415053,168.578492 205.37425,171.841941 C206.333447,175.105389 206.813039,178.80071 206.813039,182.928013 C206.813039,187.055315 206.309468,190.742637 205.302311,193.990089 C204.295154,197.23754 202.888352,199.989034 201.081864,202.244653 C199.275376,204.500272 197.101228,206.219956 194.559356,207.403756 C192.017483,208.587556 189.211873,209.179447 186.142442,209.179447 L186.142442,209.179447 Z M184.703654,199.533125 C188.572416,199.533125 191.521903,198.109387 193.552204,195.261868 C195.582504,192.414348 196.59764,188.303105 196.59764,182.928013 C196.59764,180.496423 196.333864,178.256835 195.806306,176.209181 C195.278747,174.161527 194.503408,172.401851 193.480264,170.930099 C192.45712,169.458348 191.210183,168.30656 189.739414,167.4747 C188.268645,166.642841 186.590075,166.226917 184.703654,166.226917 C182.30566,166.226917 180.219438,166.714827 178.444923,167.690662 C176.670408,168.666498 175.223641,170.06624 174.104577,171.889932 L174.104577,193.726135 C174.680096,194.494005 175.327544,195.22987 176.046942,195.933751 C176.76634,196.637632 177.565659,197.253518 178.444923,197.781429 C179.324187,198.30934 180.28337,198.733262 181.3225,199.053208 C182.361631,199.373154 183.48867,199.533125 184.703654,199.533125 L184.703654,199.533125 Z M230.013227,209.179447 C228.030886,209.179447 226.096534,208.987482 224.210112,208.603547 C222.323691,208.219612 220.557196,207.675712 218.910574,206.971831 C217.263952,206.26795 215.769226,205.412107 214.42635,204.404278 C213.083474,203.396448 211.964427,202.268655 211.069176,201.020866 L218.311079,194.829943 C218.822651,195.309862 219.44612,195.845763 220.181504,196.437663 C220.916889,197.029563 221.764167,197.581462 222.723364,198.093375 C223.682561,198.605289 224.753649,199.037209 225.936659,199.38915 C227.119669,199.74109 228.414565,199.917058 229.821388,199.917058 C231.100318,199.917058 232.28331,199.821076 233.3704,199.629108 C234.45749,199.43714 235.392693,199.133196 236.176038,198.717267 C236.959382,198.301337 237.566865,197.749438 237.998503,197.061555 C238.430142,196.373671 238.645958,195.517828 238.645958,194.494001 C238.645958,193.310201 238.238306,192.294388 237.422988,191.446531 C236.60767,190.598674 235.544576,189.830815 234.233673,189.142932 C232.92277,188.455048 231.436037,187.799168 229.773428,187.175274 C228.11082,186.551379 226.43225,185.887501 224.737668,185.18362 C223.170979,184.511734 221.636287,183.775869 220.133545,182.976004 C218.630802,182.176139 217.29594,181.216316 216.128916,180.096505 C214.961893,178.976694 214.018697,177.64094 213.299299,176.089202 C212.579901,174.537464 212.220207,172.65781 212.220207,170.450183 C212.220207,168.210561 212.675819,166.226926 213.587056,164.499218 C214.498294,162.771509 215.745231,161.323776 217.327907,160.155973 C218.910582,158.98817 220.765002,158.100333 222.891223,157.492436 C225.017443,156.884539 227.295503,156.580595 229.725469,156.580595 C231.867676,156.580595 233.841994,156.788556 235.648482,157.204486 C237.45497,157.620416 239.085581,158.180313 240.540363,158.884194 C241.995146,159.588075 243.282049,160.395927 244.401113,161.307773 C245.520176,162.219619 246.495345,163.171443 247.32665,164.163276 L239.940868,170.018258 C239.493243,169.570333 238.957699,169.09842 238.334221,168.602504 C237.710743,168.106588 236.983362,167.650672 236.152058,167.234742 C235.320754,166.818812 234.377557,166.474875 233.32244,166.202921 C232.267323,165.930967 231.068345,165.794992 229.725469,165.794992 C227.551288,165.794992 225.832753,166.194919 224.56981,166.994784 C223.306867,167.794648 222.675405,168.946437 222.675405,170.450183 C222.675405,171.41002 223.011119,172.249866 223.682557,172.969744 C224.353995,173.689623 225.265218,174.353501 226.416255,174.961398 C227.567292,175.569295 228.886168,176.153188 230.372924,176.713093 C231.859679,177.272999 233.418351,177.872888 235.048987,178.51278 C236.775542,179.184667 238.470098,179.936529 240.132707,180.768388 C241.795315,181.600248 243.274055,182.624059 244.568971,183.839854 C245.863888,185.055649 246.903002,186.527378 247.686347,188.255086 C248.469691,189.982794 248.861358,192.062412 248.861358,194.494001 C248.861358,196.893596 248.413739,199.013206 247.518488,200.852895 C246.623237,202.692584 245.35232,204.228302 243.705698,205.460094 C242.059076,206.691886 240.076765,207.619715 237.758705,208.24361 C235.440645,208.867504 232.858845,209.179447 230.013227,209.179447 L230.013227,209.179447 Z M287.168826,207.979656 L287.168826,203.18049 C285.538191,205.260139 283.659791,206.77986 281.53357,207.739697 C279.40735,208.699535 276.953441,209.179447 274.171769,209.179447 C271.549963,209.179447 269.136019,208.803516 266.929866,208.051643 C264.723712,207.29977 262.81334,206.067997 261.198691,204.356286 C259.584043,202.644575 258.329112,200.428982 257.433861,197.709442 C256.53861,194.989901 256.090992,191.662513 256.090992,187.727178 L256.090992,157.732394 L266.306391,157.732394 L266.306391,187.727178 C266.306391,189.838821 266.562173,191.63849 267.073745,193.126239 C267.585317,194.613988 268.288717,195.837763 269.183968,196.7976 C270.079219,197.757438 271.13432,198.45331 272.349303,198.885237 C273.564286,199.317164 274.891156,199.533125 276.329952,199.533125 C277.864667,199.533125 279.287455,199.333161 280.598358,198.933229 C281.909261,198.533297 283.052287,197.877417 284.027471,196.965571 C285.002655,196.053725 285.770001,194.861944 286.329533,193.390193 C286.889064,191.918442 287.168826,190.094777 287.168826,187.919144 L287.168826,157.732394 L297.384225,157.732394 L297.384225,207.979656 L287.168826,207.979656 Z M307.635315,207.979656 L307.635315,157.732394 L317.850715,157.732394 L317.850715,207.979656 L307.635315,207.979656 Z M342.63357,209.179447 C340.651229,209.179447 338.948679,208.883501 337.52587,208.291601 C336.103061,207.699701 334.936055,206.859856 334.024818,205.77204 C333.113581,204.684223 332.450146,203.364466 332.034494,201.812728 C331.618841,200.26099 331.411019,198.541307 331.411019,196.653625 L331.411019,166.61085 L323.64156,166.61085 L323.64156,157.732394 L331.411019,157.732394 L331.411019,141.94314 L341.626418,137 L341.626418,157.732394 L353.520404,157.732394 L353.520404,166.61085 L341.626418,166.61085 L341.626418,194.014085 C341.626418,194.845944 341.698357,195.613803 341.842236,196.317684 C341.986116,197.021565 342.241898,197.629453 342.60959,198.141367 C342.977282,198.65328 343.480853,199.045208 344.120318,199.317162 C344.759783,199.589116 345.575088,199.725091 346.566259,199.725091 C348.996225,199.725091 351.474114,198.941235 354,197.3735 L352.75305,206.875848 C351.346227,207.579729 349.811535,208.139626 348.148926,208.555556 C346.486318,208.971485 344.647884,209.179447 342.63357,209.179447 L342.63357,209.179447 Z" id="jumpsuit" fill="#FFFFFF"></path>
                <g id="Group-2" transform="translate(113.000000, 0.000000)">
                    <ellipse id="Oval-4" fill="#FFFFFF" cx="63.1292517" cy="63.5" rx="63.1292517" ry="63.5"></ellipse>
                    <path d="M103.544131,112.311082 C122.595378,99.7508017 127.355044,75.3922205 127.355044,60.7364389 C127.355044,43.2836853 114.463336,16.9702334 99.8489979,11.8594971 C61.4893025,28.9013138 45.7142857,63.4999995 45.7142857,63.4999995 C45.7142857,63.4999995 63.3820389,96.7626682 103.544131,112.311082 Z" id="Oval-4" fill="#3D3D3D"></path>
                    <path d="M109.92375,26.326953 C106.918432,19.7371627 101.430005,18.0206897 101.430005,18.0206897 C101.430006,18.0206897 84.2738812,21.7186479 68.0042641,42.3079898 C68.0042641,42.3079898 89.8643048,27.7633826 109.92375,26.326953 Z" id="Oval-4" fill="#575757"></path>
                    <g id="Group-3" transform="translate(46.000000, 65.500000) rotate(-13.000000) translate(-46.000000, -65.500000) translate(39.000000, 56.000000)">
                        <g id="Oval-5">
                            <use fill="black" fill-opacity="1" filter="url(#filter-2)" xlink:href="#path-1"></use>
                            <use fill="#00D4ED" fill-rule="evenodd" xlink:href="#path-1"></use>
                        </g>
                        <ellipse id="Oval-5" fill="#FFFFFF" cx="7.45578231" cy="9.5" rx="2" ry="2.68232759"></ellipse>
                    </g>
                </g>
            </g>
        </g>
    </g>
</svg>
