<?xml version="1.0" encoding="UTF-8" standalone="no"?>
<svg viewBox="0 0 359 301" version="1.1" xmlns="http://www.w3.org/2000/svg" xmlns:xlink="http://www.w3.org/1999/xlink">
    <g id="Page-1" stroke="none" stroke-width="1" fill="none" fill-rule="evenodd">
        <g id="Artboard-1-Copy-5" transform="translate(-221.000000, -150.000000)" fill="#FFFFFF">
            <g id="Group" transform="translate(221.000000, 150.000000)">
                <path d="M16.8,283.9 C16.8,287.033349 16.4166705,289.59999 15.65,291.6 C14.8833295,293.60001 13.83334,295.216661 12.5,296.45 C11.16666,297.68334 9.633342,298.583331 7.9,299.15 C6.166658,299.71667 4.366676,300.099999 2.5,300.3 L0.7,297.2 C4.966688,296.866665 8.1166565,295.716677 10.15,293.75 C12.1833435,291.783324 13.2,288.566689 13.2,284.1 L13.2,227.9 L16.8,227.9 L16.8,283.9 Z M66.7116279,279 L66.7116279,270.4 C65.8449569,272.266676 64.8283004,273.833327 63.6616279,275.1 C62.4949554,276.366673 61.2616344,277.366663 59.9616279,278.1 C58.6616214,278.833337 57.2949684,279.366665 55.8616279,279.7 C54.4282874,280.033335 53.0449679,280.2 51.7116279,280.2 C46.3116009,280.2 42.2116419,278.483351 39.4116279,275.05 C36.6116139,271.61665 35.2116279,266.300036 35.2116279,259.1 L35.2116279,227.9 L38.8116279,227.9 L38.8116279,259.9 C38.8116279,266.100031 40.0116159,270.483321 42.4116279,273.05 C44.8116399,275.61668 47.9782749,276.9 51.9116279,276.9 C53.9783049,276.9 55.9282854,276.56667 57.7616279,275.9 C59.5949704,275.23333 61.1616214,274.133341 62.4616279,272.6 C63.7616344,271.066659 64.7949574,269.083346 65.5616279,266.65 C66.3282984,264.216655 66.7116279,261.200018 66.7116279,257.6 L66.7116279,227.9 L70.3116279,227.9 L70.3116279,279 L66.7116279,279 Z M135.823256,226.7 C140.756614,226.7 144.656575,228.233318 147.523256,231.3 C150.389937,234.366682 151.823256,238.56664 151.823256,243.9 L151.823256,279 L148.223256,279 L148.223256,246.9 C148.223256,245.033324 148.089924,243.116677 147.823256,241.15 C147.556588,239.183324 146.97326,237.383342 146.073256,235.75 C145.173251,234.116659 143.889931,232.766672 142.223256,231.7 C140.556581,230.633328 138.32327,230.1 135.523256,230.1 C133.389912,230.1 131.473264,230.549996 129.773256,231.45 C128.073247,232.350005 126.639928,233.566659 125.473256,235.1 C124.306583,236.633341 123.423259,238.416657 122.823256,240.45 C122.223253,242.483344 121.923256,244.633322 121.923256,246.9 L121.923256,279 L118.323256,279 L118.323256,246.9 C118.323256,245.033324 118.173257,243.116677 117.873256,241.15 C117.573254,239.183324 116.989927,237.383342 116.123256,235.75 C115.256585,234.116659 113.989931,232.766672 112.323256,231.7 C110.656581,230.633328 108.489936,230.1 105.823256,230.1 C103.489911,230.1 101.456598,230.533329 99.7232558,231.4 C97.9899138,232.266671 96.5565948,233.483326 95.4232558,235.05 C94.2899168,236.616675 93.4399253,238.466656 92.8732558,240.6 C92.3065863,242.733344 92.0232558,245.066654 92.0232558,247.6 L92.0232558,279 L88.4232558,279 L88.4232558,227.9 L92.0232558,227.9 L92.0232558,236.3 C93.5565968,232.96665 95.5899098,230.533341 98.1232558,229 C100.656602,227.466659 103.389908,226.7 106.323256,226.7 C109.723273,226.7 112.706576,227.683324 115.273256,229.65 C117.839935,231.616677 119.556585,234.799978 120.423256,239.2 C121.756596,235.066646 123.823242,231.950011 126.623256,229.85 C129.42327,227.74999 132.489906,226.7 135.823256,226.7 L135.823256,226.7 Z M187.934884,280.2 C184.734868,280.2 181.851563,279.383342 179.284884,277.75 C176.718204,276.116659 174.634892,273.733349 173.034884,270.6 L173.034884,297.5 L169.434884,299.3 L169.434884,227.9 L173.034884,227.9 L173.034884,235.3 C176.568235,229.566638 181.801516,226.7 188.734884,226.7 C191.734899,226.7 194.434872,227.333327 196.834884,228.6 C199.234896,229.866673 201.268209,231.666655 202.934884,234 C204.601559,236.333345 205.884879,239.149984 206.784884,242.45 C207.684888,245.750017 208.134884,249.39998 208.134884,253.4 C208.134884,262.133377 206.284902,268.783311 202.584884,273.35 C198.884865,277.91669 194.001581,280.2 187.934884,280.2 L187.934884,280.2 Z M187.934884,276.6 C193.13491,276.6 197.151536,274.60002 199.984884,270.6 C202.818231,266.59998 204.234884,260.866704 204.234884,253.4 C204.234884,249.933316 203.868221,246.766681 203.134884,243.9 C202.401547,241.033319 201.334891,238.60001 199.934884,236.6 C198.534877,234.59999 196.818227,233.050005 194.784884,231.95 C192.75154,230.849994 190.46823,230.3 187.934884,230.3 C184.801535,230.3 181.91823,231.183324 179.284884,232.95 C176.651537,234.716675 174.568225,237.099985 173.034884,240.1 L173.034884,265.6 C174.701559,269.000017 176.818204,271.683323 179.384884,273.65 C181.951563,275.616676 184.801535,276.6 187.934884,276.6 L187.934884,276.6 Z M245.746512,235.3 C244.346505,233.96666 242.663188,232.766672 240.696512,231.7 C238.729835,230.633328 236.379859,230.1 233.646512,230.1 C230.046494,230.1 227.279855,230.933325 225.346512,232.6 C223.413169,234.266675 222.446512,236.499986 222.446512,239.3 C222.446512,240.966675 222.779842,242.366661 223.446512,243.5 C224.113182,244.633339 225.029839,245.633329 226.196512,246.5 C227.363184,247.366671 228.696504,248.13333 230.196512,248.8 C231.696519,249.46667 233.279837,250.13333 234.946512,250.8 C237.146523,251.666671 239.179836,252.549996 241.046512,253.45 C242.913188,254.350005 244.529838,255.399994 245.896512,256.6 C247.263185,257.800006 248.346508,259.233325 249.146512,260.9 C249.946516,262.566675 250.346512,264.599988 250.346512,267 C250.346512,270.933353 249.046525,274.116655 246.446512,276.55 C243.846499,278.983346 240.046537,280.2 235.046512,280.2 C231.513161,280.2 228.413192,279.450008 225.746512,277.95 C223.079832,276.449993 220.813188,274.633344 218.946512,272.5 L221.746512,270.1 C223.279853,271.833342 225.163167,273.383327 227.396512,274.75 C229.629856,276.116674 232.146498,276.8 234.946512,276.8 C238.54653,276.8 241.396501,276.000008 243.496512,274.4 C245.596522,272.799992 246.646512,270.33335 246.646512,267 C246.646512,265.199991 246.246516,263.63334 245.446512,262.3 C244.646508,260.96666 243.596518,259.766672 242.296512,258.7 C240.996505,257.633328 239.513187,256.700004 237.846512,255.9 C236.179837,255.099996 234.446521,254.36667 232.646512,253.7 C228.446491,252.166659 225.079858,250.333344 222.546512,248.2 C220.013166,246.066656 218.746512,243.100019 218.746512,239.3 C218.746512,235.699982 220.063165,232.700012 222.696512,230.3 C225.329858,227.899988 229.013155,226.7 233.746512,226.7 C236.613193,226.7 239.329832,227.266661 241.896512,228.4 C244.463191,229.533339 246.646503,231.066657 248.446512,233 L245.746512,235.3 Z M294.95814,279 L294.95814,270.4 C294.091469,272.266676 293.074812,273.833327 291.90814,275.1 C290.741467,276.366673 289.508146,277.366663 288.20814,278.1 C286.908133,278.833337 285.54148,279.366665 284.10814,279.7 C282.674799,280.033335 281.29148,280.2 279.95814,280.2 C274.558113,280.2 270.458154,278.483351 267.65814,275.05 C264.858126,271.61665 263.45814,266.300036 263.45814,259.1 L263.45814,227.9 L267.05814,227.9 L267.05814,259.9 C267.05814,266.100031 268.258128,270.483321 270.65814,273.05 C273.058152,275.61668 276.224787,276.9 280.15814,276.9 C282.224817,276.9 284.174797,276.56667 286.00814,275.9 C287.841482,275.23333 289.408133,274.133341 290.70814,272.6 C292.008146,271.066659 293.041469,269.083346 293.80814,266.65 C294.57481,264.216655 294.95814,261.200018 294.95814,257.6 L294.95814,227.9 L298.55814,227.9 L298.55814,279 L294.95814,279 Z M316.969767,279 L316.969767,227.9 L320.569767,227.9 L320.569767,279 L316.969767,279 Z M351.081395,280.2 C347.548044,280.2 345.098069,279.100011 343.731395,276.9 C342.364722,274.699989 341.681395,271.93335 341.681395,268.6 L341.681395,231.2 L332.981395,231.2 L332.981395,227.9 L341.681395,227.9 L341.681395,208.6 L345.281395,206.8 L345.281395,227.9 L358.281395,227.9 L358.281395,231.2 L345.281395,231.2 L345.281395,268.1 C345.281395,270.76668 345.681391,272.866659 346.481395,274.4 C347.281399,275.933341 348.948049,276.7 351.481395,276.7 C353.014736,276.7 354.431389,276.433336 355.731395,275.9 C357.031402,275.366664 358.114724,274.833336 358.981395,274.3 L358.581395,278.1 C357.514723,278.76667 356.298069,279.283331 354.931395,279.65 C353.564722,280.016668 352.281401,280.2 351.081395,280.2 L351.081395,280.2 Z" id="jumpsuit-copy-2"></path>
                <g id="Group-Copy" transform="translate(84.000000, 0.000000)">
                    <path d="M139.909091,173.308912 C126.030777,181.713337 109.785824,186.545455 92.4225555,186.545455 C41.3789876,186.545455 0,144.785832 0,93.2727273 C0,41.7596224 41.3789876,0 92.4225555,0 C105.765633,0 118.448302,2.85355697 129.90406,7.98895763 C119.633097,4.23849233 108.480378,2.20112631 96.8236296,2.20112631 C45.7800616,2.20112631 4.40107407,41.2668835 4.40107407,92.1721641 C4.40107407,143.077445 45.7800616,183.794047 96.8236296,183.794047 C112.382871,183.794047 127.044109,180.010786 139.909091,173.308912 Z" id="Combined-Shape"></path>
                    <path d="M81.1818234,72.5648199 C92.9917541,55.4636744 115.060177,30.1521737 149.733911,14.6818182 C171.127834,22.1955159 190,60.8810023 190,86.5396756 C190,108.086299 183.032327,143.897776 155.143215,162.363636 C122.562164,150.118932 100.856016,130.948624 87.5871111,115.501333 C101.385287,129.960571 123.167675,147.601327 153.886668,158.07427 C178.325076,144.118042 186.710627,105.952878 186.710627,87.0593831 C186.710627,64.5601733 173.398379,30.7864395 150.409904,18.0655692 C116.426888,31.3607629 93.7730559,55.5422052 81.1818182,72.5648269 Z" id="Combined-Shape"></path>
                    <path d="M113.020189,51.9049223 C132.806859,32.3831857 150.670437,28.5 150.670437,28.5 C150.670437,28.5 158.608093,31.0035622 162.954545,40.6151022 C142.318363,42.1053953 120.364553,53.2694558 109.409091,59.5909091 C120.708685,52.8270022 141.059798,42.2257137 161.315999,39.848876 C157.975476,32.1544713 150.374214,29.5899768 150.374214,29.5899768 C144.5783,31.0750219 128.695157,37.6932133 113.020189,51.9049223 Z" id="Combined-Shape"></path>
                    <path d="M78.6216693,102.499407 C77.536854,103.851 76.1361915,104.804371 74.495221,105.183219 C69.5074674,106.334732 64.1883534,101.742378 62.6146475,94.925909 C61.0409415,88.1094397 63.808574,81.6501132 68.7963277,80.4985995 C70.2531408,80.1622677 71.7382221,80.3159427 73.1499906,80.8719227 C72.2501043,80.7840773 71.3368666,80.840427 70.4343977,81.0487783 C65.4466441,82.200292 62.6765914,87.5587021 64.2502973,94.3751715 C65.8240033,101.191641 71.1406971,104.683079 76.1284507,103.531565 C77.0374759,103.3217 77.8728388,102.9721 78.6216693,102.499407 Z" id="Combined-Shape"></path>
                    <ellipse id="Oval-5" transform="translate(71.681818, 92.840909) rotate(-13.000000) translate(-71.681818, -92.840909) " cx="71.6818182" cy="92.8409091" rx="2.59090909" ry="3.02272727"></ellipse>
                </g>
            </g>
        </g>
    </g>
</svg>
