<?xml version="1.0" encoding="UTF-8" standalone="no"?>
<svg viewBox="0 0 515 222" version="1.1" xmlns="http://www.w3.org/2000/svg" xmlns:xlink="http://www.w3.org/1999/xlink">
    <defs></defs>
    <g id="Page-1" stroke="none" stroke-width="1" fill="none" fill-rule="evenodd">
        <g id="Group-4">
            <g id="redux" transform="translate(295.000000, 6.611530)" fill="#764ABC">
                <g id="Group">
                    <path d="M152.530288,145.739474 C160.631713,144.901115 166.777622,137.914784 166.498263,129.531188 C166.218903,121.147592 159.234916,114.440715 150.854131,114.440715 L150.295412,114.440715 C141.635267,114.720168 134.930639,121.985952 135.209999,130.649001 C135.489358,134.840799 137.165515,138.473691 139.679751,140.98877 C130.181528,159.712135 115.654834,173.405342 93.8647926,184.862923 C79.058739,192.687613 63.6939664,195.482145 48.3291938,193.525973 C35.7580162,191.849253 25.9804337,186.260189 19.8345246,177.038233 C10.8950206,163.345026 10.0569421,148.534006 17.5996486,133.722986 C22.9074791,123.103764 31.2882642,115.279075 36.5960947,111.36673 C35.4786567,107.733838 33.8024997,101.585868 32.9644212,97.1146162 C-7.54270654,126.457203 -3.35231402,166.139558 8.93950405,184.862923 C18.1583676,198.835584 36.8754542,207.498633 57.5480573,207.498633 C63.1352474,207.498633 68.7224374,206.939727 74.3096274,205.542461 C110.067644,198.55613 137.165515,177.317687 152.530288,145.739474 L152.530288,145.739474 Z" id="Shape"></path>
                    <path d="M201.69756,111.087277 C180.466238,86.2159411 149.177974,72.522734 113.419958,72.522734 L108.950206,72.522734 C106.43597,67.4925762 101.12814,64.1391377 95.2615901,64.1391377 L94.7028711,64.1391377 C86.0427265,64.418591 79.3380985,71.6843743 79.617458,80.3474238 C79.8968175,88.73102 86.880805,95.437897 95.2615901,95.437897 L95.8203091,95.437897 C101.966218,95.1584437 107.274049,91.2460988 109.508925,85.9364879 L114.537396,85.9364879 C135.768718,85.9364879 155.882602,92.0844585 174.04097,104.100946 C188.008945,113.322902 198.065887,125.33939 203.653077,139.870957 C208.402188,151.607992 208.122829,163.065573 203.094358,172.846435 C195.272292,187.657455 182.142395,195.761598 164.822106,195.761598 C153.647726,195.761598 143.032065,192.40816 137.444875,189.893081 C134.37192,192.687613 128.78473,197.158864 124.873697,199.953396 C136.886156,205.542461 149.177974,208.616446 160.911073,208.616446 C187.729585,208.616446 207.56411,193.805426 215.106816,178.994406 C223.208242,162.78612 222.649523,134.840799 201.69756,111.087277 L201.69756,111.087277 Z" id="Shape"></path>
                    <path d="M59.7829334,150.490179 C60.0622929,158.873775 67.0462804,165.580652 75.4270654,165.580652 L75.9857845,165.580652 C84.645929,165.301199 91.350557,158.035415 91.0711975,149.372366 C90.791838,140.98877 83.8078505,134.281893 75.4270654,134.281893 L74.8683464,134.281893 C74.3096274,134.281893 73.4715489,134.281893 72.9128299,134.561346 C61.4590904,115.558528 56.7099788,94.8789905 58.3861358,72.522734 C59.5035739,55.7555415 65.0907639,41.2239748 74.8683464,29.2074869 C82.969772,18.8677182 98.6139041,13.8375605 109.229565,13.5581073 C138.841672,12.9992008 151.41285,49.8870242 152.250928,64.6980442 C155.882602,65.5364038 162.028511,67.4925762 166.218903,68.8898423 C162.866589,23.6184227 134.930639,0.144353312 108.112127,0.144353312 C82.969772,0.144353312 59.7829334,18.3088118 50.5640698,45.1363197 C37.7135327,80.9063302 46.0943178,115.279075 61.7384499,142.386036 C60.3416524,144.342208 59.5035739,147.416193 59.7829334,150.490179 L59.7829334,150.490179 Z" id="Shape"></path>
                </g>
            </g>
            <g id="react" fill="#00D8FF">
                <g id="Layer_2">
                    <ellipse id="Oval" cx="125.012851" cy="110.673813" rx="22.2305505" ry="22.1877538"></ellipse>
                    <path d="M125.012851,70.8688052 C153.735519,70.8688052 181.020377,74.9104962 201.763501,82.037846 C224.801095,89.9534533 238.853636,101.65652 238.853636,110.673813 C238.853636,120.278991 223.677244,132.74881 199.035137,140.897743 C179.417244,147.385136 153.169612,150.921099 125.012851,150.921099 C95.4334642,150.921099 68.8897671,147.454037 49.4994733,140.83894 C37.3602255,136.697717 27.3353118,131.315833 20.4639603,125.442679 C14.2893915,120.165088 11.1720659,114.925277 11.1720659,110.673813 C11.1720659,101.626189 24.6869153,90.085677 47.2276634,82.2420103 C67.9794651,75.0214009 95.9321377,70.8688052 125.012851,70.8688052 L125.012851,70.8688052 Z M125.012851,60.2541364 C94.8023524,60.2541364 65.6789354,64.5806556 43.7265515,72.2190088 C17.3693578,81.3907116 0.536922981,95.7641543 0.536922981,110.673813 C0.536922981,126.072807 18.6068446,141.517719 46.0596939,150.883074 C66.6950424,157.922928 94.3548123,161.535768 125.012851,161.535768 C154.231214,161.535768 181.583057,157.851051 202.380033,150.973749 C230.919897,141.535862 249.488779,126.278573 249.488779,110.673813 C249.488779,95.7102602 232.11333,81.2398498 205.225363,72.0012726 C183.299462,64.46752 154.855533,60.2541364 125.012851,60.2541364 L125.012851,60.2541364 Z" id="Shape"></path>
                    <path d="M90.2723825,90.8990791 C104.621251,66.0657697 121.760053,44.4942183 138.308891,30.1200282 C156.688198,14.1561615 173.866045,7.85274583 181.69253,12.3573705 C190.029359,17.1556821 193.27093,36.5072408 188.03308,61.8833605 C183.862995,82.0860978 173.819444,106.54643 159.753299,130.89086 C144.976282,156.465436 128.706817,177.6828 113.278083,191.143213 C103.619292,199.570101 93.9400188,205.548986 85.409722,208.555848 C77.7444722,211.257787 71.6392138,211.335332 67.9489566,209.211383 C60.0962795,204.691347 56.8315465,187.241331 61.2845769,163.834068 C65.3839754,142.285321 75.7439856,116.043311 90.2723924,90.899062 L90.2723825,90.8990791 Z M81.0594558,85.5962815 C65.9666247,111.717377 55.17268,139.058547 50.8361105,161.853999 C45.6291569,189.224244 49.6953183,210.957899 62.6359455,218.406582 C76.0019265,226.09945 98.4342995,218.192217 120.277401,199.135033 C136.69678,184.810357 153.650349,162.700836 168.966248,136.193618 C183.56272,110.931345 194.028775,85.4420365 198.449477,64.0251414 C204.515854,34.6350083 200.549657,10.9575675 187.005393,3.16208615 C174.017953,-4.31298665 152.77829,3.4809135 131.32716,22.112898 C113.834697,37.3067141 95.9678528,59.7946075 81.0594657,85.5962643 L81.0594558,85.5962815 Z" id="Shape"></path>
                    <path d="M90.3056248,130.948641 C75.9153545,106.1391 65.7497962,80.5460359 61.5373099,59.057682 C56.8587794,35.1927104 59.966145,17.1908309 67.7851604,12.6731536 C76.1139908,7.86062657 94.5308142,14.7221253 113.941868,31.9245555 C129.396137,45.619776 145.612347,66.5198038 159.719643,90.8412802 C174.539482,116.391009 184.831965,141.055591 188.811032,161.119179 C191.302146,173.679631 191.658061,185.035222 190.007946,193.912968 C188.525171,201.890412 185.543407,207.20823 181.856748,209.338356 C174.0113,213.871445 157.233325,207.979682 139.139074,192.43911 C122.481585,178.132579 104.876333,156.068514 90.3055902,130.948581 L90.3056248,130.948641 Z M81.1015902,136.266798 C96.238362,162.362564 114.580961,185.350721 132.20212,200.484914 C153.359894,218.656648 174.256634,225.994758 187.185085,218.524717 C200.538003,210.809494 204.877372,187.463353 199.243751,159.058055 C195.009194,137.706213 184.283941,112.004556 168.923684,85.5231337 C154.284522,60.2847004 137.386107,38.5054225 121.003109,23.9871845 C98.5216723,4.06372459 75.9878372,-4.33163641 62.4568075,3.48680187 C49.481735,10.9835502 45.6395903,33.24222 51.1000769,61.0959137 C55.5527542,83.8095083 66.1501441,110.489763 81.1015557,136.266739 L81.1015902,136.266798 Z" id="Shape"></path>
                </g>
            </g>
        </g>
    </g>
</svg>
